# xmcd
#
# Track frame offsets:
#	150
#	12532
#	25182
#	35160
#	49845
#	61735
#	72282
#	81770
#	92722
#	103707
#	115562
#	125100
#	133055
#	144795
#	156292
#	166705
#	179087
#	190992
#	202202
#	211202
#	221672
#	236947
#	248302
#	259797
#	271490
#	282850
#	293980
#
# Disc length: 4092 seconds
# Revision: 8
# Processed by: cddbd v1.5.2PL0 Copyright (c) Steve Scherf et al.
# Submitted via: dBpowerAMP V12.0
#
DISCID=9b0ffa1b
DTITLE=Patsy Cline - The Patsy Cline Collection [CD1 of 4)
DYEAR=1991
DGENRE=Country
TTITLE0=I'm Walking the Dog
TTITLE1=It Wasn't God Who Made Honky Tonk Angels
TTITLE2=Turn the Cards Slowly
TTITLE3=A Church, a Courtroom, and Then Goodbye
TTITLE4=Honky Tonk Merry Go Round
TTITLE5=I Love You, Honey
TTITLE6=Come on In (And Make Yourself at Home)
TTITLE7=I Don't Wanta
TTITLE8=Stop, Look and Listen
TTITLE9=I've Loved and Lost Again
TTITLE10=Yes, I Know Why
TTITLE11=For Rent
TTITLE12=Walkin' After Midnight
TTITLE13=The Heart You Break May Be Your Own
TTITLE14=Pick Me Up on Your Way Down
TTITLE15=A Poor Man's Roses (Or a Rich Man's Gold)
TTITLE16=Today, Tomorrow and Forever
TTITLE17=Don't Ever Leave Me Again
TTITLE18=Try Again
TTITLE19=Too Many Secrets
TTITLE20=Then You'll Know
TTITLE21=Three Cigarettes in an Ashtray
TTITLE22=That Wonderful Someone
TTITLE23=In Care of the Blues
TTITLE24=Hungry for Love
TTITLE25=I Can't Forget
TTITLE26=If I Could See the World (Through the Eyes of a Child)
EXTD=
EXTT0=
EXTT1=
EXTT2=
EXTT3=
EXTT4=
EXTT5=
EXTT6=
EXTT7=
EXTT8=
EXTT9=
EXTT10=
EXTT11=
EXTT12=
EXTT13=
EXTT14=
EXTT15=
EXTT16=
EXTT17=
EXTT18=
EXTT19=
EXTT20=
EXTT21=
EXTT22=
EXTT23=
EXTT24=
EXTT25=
EXTT26=
PLAYORDER=
